<?xml version="1.0" encoding="UTF-8"?>
<svg id="Layer_2" data-name="Layer 2" xmlns="http://www.w3.org/2000/svg" xmlns:xlink="http://www.w3.org/1999/xlink" viewBox="0 0 488.26 83.9">
  <defs>
    <style>
      .cls-1 {
        fill: url(#radial-gradient);
        stroke: #03f300;
        stroke-miterlimit: 10;
      }
    </style>
    <radialGradient id="radial-gradient" cx="623.23" cy="20.61" fx="623.23" fy="20.61" r="53.24" gradientTransform="translate(-738.95) scale(1.22 1)" gradientUnits="userSpaceOnUse">
      <stop offset="0" stop-color="lime"/>
      <stop offset=".15" stop-color="#00fb00"/>
      <stop offset=".27" stop-color="#03f200"/>
      <stop offset=".37" stop-color="#08e100"/>
      <stop offset=".47" stop-color="#0fca00"/>
      <stop offset=".57" stop-color="#17ad00"/>
      <stop offset=".65" stop-color="#228900"/>
      <stop offset=".67" stop-color="#248300"/>
      <stop offset="1" stop-color="#12c000"/>
    </radialGradient>
  </defs>
  <g id="Layer_1-2" data-name="Layer 1">
    <g>
      <path class="cls-1" d="M57.34,81.38c.07,1.43-1.31,2.32-3.05,1.93-.09.06-47.13-11.76-47.24-11.74-1.32-.35-1.34-1.63,0-1.41l45.67,8.01v-40.81l-45.67-3.87c-1.28-.09-1.59-1.34-.36-1.57,0,0,41.3-10.04,41.3-10.04l.75-.22c2.02-.62,4.13,1.03,3.39,2.64,0,0-2.26,5.27-2.26,5.27-.26.69-1.58.62-1.84-.05,0,0-.49-1.15-1.02-2.38l-30.47,4.86,37.62-.14c1.73,0,3.18,1.2,3.18,2.62.11.06-.08,46.79,0,46.89ZM25.31,60.21c-.32-.85-.61-1.63-.61-1.63-.36-1.05-2.45-1.37-2.83-.42,0,0-1.41,3.3-1.41,3.3-.42.91.68,2.13,2.13,2.37l.69.12,5.05.87,1.57,4.09c.34.95,2.14,1.31,2.49.46l1.57-3.59,5.05.87c1.56.27,2.83-.49,2.83-1.69v-8.96c0-1.2-1.27-2.33-2.83-2.52l-12.89-1.57v-4.23l10.91,1.14.69,1.82c.35.99,2.23,1.23,2.59.29.05-.19,1.77-4.18,1.62-4.25,0-.93-.98-1.78-2.2-1.89l-.72-.06-5.05-.45-1.57-4c-.34-.92-2.14-1.06-2.49-.18l-1.57,3.68-5.05-.45c-1.56-.14-2.83.65-2.83,1.75v8.14c0,1.1,1.27,2.17,2.83,2.39l12.89,1.78v4.51l-10.87-1.69ZM1.03,37.81c1.8.83,3.86.98,5.8.75,2.9-.45,2.89-1.13,0-1.98-1.94-.5-4-.64-5.8-.05-.71.23-.71.95,0,1.28ZM6.83,65.7c-1.94-.74-4-1.14-5.8-.79-.71.14-.71.86,0,1.28,1.8,1.06,3.86,1.47,5.8,1.49,2.9-.08,2.89-.77,0-1.98ZM1.03,59.1c1.8,1,3.86,1.34,5.8,1.3,2.9-.17,2.89-.86,0-1.98-1.94-.68-4-1.02-5.8-.6-.71.17-.71.88,0,1.28ZM1.03,52.01c1.8.95,3.86,1.22,5.8,1.12,2.9-.27,2.89-.95,0-1.98-1.94-.62-4-.89-5.8-.42-.71.19-.71.9,0,1.28ZM1.03,44.91c1.8.89,3.86,1.1,5.8.94,2.9-.36,2.89-1.04,0-1.98-1.94-.56-4-.76-5.8-.24-.71.21-.71.93,0,1.28Z"/>
      <g>
        <g>
          <g id="Layer_2-2" data-name="Layer 2">
            <g id="Layer_1-2" data-name="Layer 1-2">
              <rect x="329.52" y="5.15" width="8.25" height="1.67"/>
              <polygon points="340.64 10.59 340.64 12.26 329.52 12.26 329.52 8.85 331.34 8.85 331.34 10.59 340.64 10.59"/>
              <path d="M232.49,8.06c0,.7,0,2.82-4.46,2.82s-4.49-2.12-4.49-2.82V.35h-1.82v8.08c0,1.26.6,2.3,1.79,3.08,1.13.75,2.65,1.13,4.52,1.13s3.39-.39,4.52-1.15c1.17-.76,1.76-1.8,1.76-3.07V.35h-1.82v7.71Z"/>
              <polygon points="247.77 9.9 238.98 .35 236.94 .35 236.94 12.32 238.76 12.32 238.76 2.78 247.58 12.32 249.59 12.32 249.59 .35 247.77 .35 247.77 9.9"/>
              <path d="M264.14,1.63c-1.32-1.08-2.97-1.63-4.9-1.63s-3.59.55-4.91,1.64c-1.48,1.22-2.23,2.79-2.23,4.69s.74,3.5,2.21,4.71c1.31,1.07,2.97,1.62,4.93,1.62s3.6-.54,4.91-1.62c1.47-1.21,2.21-2.79,2.21-4.71,0-1.9-.75-3.47-2.23-4.69ZM263.07,9.61c-.96.84-2.24,1.27-3.83,1.27s-2.87-.42-3.82-1.26-1.41-1.91-1.41-3.28.54-2.52,1.65-3.4c.97-.77,2.17-1.16,3.58-1.16s2.6.39,3.58,1.16c1.12.88,1.66,1.99,1.66,3.4,0,1.37-.46,2.44-1.42,3.28h0Z"/>
              <polygon points="284.32 2.13 289.65 2.13 289.65 12.32 291.47 12.32 291.47 2.13 296.8 2.13 296.8 .35 284.32 .35 284.32 2.13"/>
              <path d="M310.26,8.06c0,.7,0,2.82-4.46,2.82s-4.49-2.12-4.49-2.82V.35h-1.82v8.08c0,1.26.6,2.3,1.79,3.08,1.13.75,2.65,1.13,4.51,1.13s3.39-.39,4.52-1.15c1.16-.76,1.76-1.8,1.76-3.07V.35h-1.82v7.71Z"/>
              <path d="M325.16,5.73c-.54-.23-1.22-.39-2.09-.48-.47-.05-1.33-.1-2.63-.16-1.45-.06-2.47-.21-3.05-.45-.72-.29-.81-.75-.81-1.06,0-.53.28-.92.88-1.22.67-.34,1.68-.52,3-.52,1.67,0,3.16.35,4.44,1.04l.28.15,1.25-1.36-.4-.26c-1.34-.89-3.23-1.35-5.63-1.35-1.79,0-3.21.31-4.2.91-1.06.65-1.6,1.56-1.6,2.71,0,1.24.66,2.15,1.89,2.61.49.19,1.13.32,1.94.4.47.05,1.29.1,2.49.16,1.54.07,2.64.24,3.26.52.6.26.88.66.88,1.25,0,.65-.34,1.16-1.03,1.54-.76.42-1.89.63-3.35.63-1.81,0-3.59-.5-5.11-1.48l-.33-.21-1.04,1.51.33.23c1.64,1.14,3.78,1.72,6.36,1.72,1.92,0,3.43-.34,4.48-1.01,1.11-.71,1.68-1.71,1.68-2.99,0-1.33-.65-2.32-1.88-2.85Z"/>
              <path d="M280.38,6.17c.9-.58,1.37-1.45,1.37-2.56,0-1-.33-1.81-.99-2.39-.64-.57-1.54-.87-2.67-.87h-9.08v1.77h0v1.43h1.83v-1.43h7.42c.5,0,.88.14,1.17.42s.42.64.42,1.09c0,.51-.16.91-.5,1.24s-.78.49-1.32.49h-9.02v1.77h9.19c.65,0,1.15.16,1.52.49.35.31.53.74.53,1.29,0,.76-.24,1.64-2.08,1.64h-7.33v-1.67h-1.82v3.44h9.16c1.18,0,2.14-.3,2.84-.89.72-.61,1.08-1.44,1.08-2.46,0-.91-.32-2.06-1.71-2.81Z"/>
              <polygon points="331.34 2.06 340.63 2.06 340.63 .39 329.52 .39 329.52 2.03 329.52 2.06 329.52 3.5 331.34 3.5 331.34 2.06"/>
            </g>
          </g>
          <g>
            <path d="M339,.97h-.34v.58h-.18v-.58h-.34v-.14h.87v.14Z"/>
            <path d="M340.18,1.56h-.18v-.51h0l-.34.41-.35-.41h0v.51h-.18v-.72h.2l.32.38.32-.38h.21v.72Z"/>
          </g>
        </g>
        <g>
          <polygon points="83.2 21.58 74.1 21.58 74.1 82.28 126.98 82.28 126.98 73.42 83.2 73.42 83.2 21.58"/>
          <g>
            <rect x="136.07" y="45.78" width="42.3" height="8.86"/>
            <polygon points="145.16 36.44 136.07 36.44 136.07 21.58 192.94 21.58 192.94 30.44 145.16 30.44 145.16 36.44"/>
            <polygon points="192.94 73.43 192.94 82.28 136.07 82.28 136.07 64.82 145.16 64.82 145.16 73.43 192.94 73.43"/>
          </g>
          <path d="M261.15,29.94c-5.71-5.55-13.57-8.36-23.36-8.36h-35.76v14.86h9.1v-6h27.44c6.45,0,11.5,1.96,15.45,6,3.96,4.05,5.89,9.24,5.89,15.89,0,5.98-1.8,10.86-5.5,14.91-3.82,4.16-8.51,6.19-14.35,6.19h-28.93v-8.61h-9.1v17.46h37.64c8.54,0,15.77-2.84,21.49-8.44,5.72-5.61,8.63-12.77,8.63-21.28,0-9.45-2.91-17.06-8.64-22.62Z"/>
          <path d="M277.15,52.56c0,8.51,2.91,15.67,8.63,21.28,5.72,5.6,12.95,8.44,21.49,8.44h37.64s0-30.35,0-30.35h-9.1s0,21.5,0,21.5h-28.93c-5.84,0-10.53-2.03-14.35-6.19-3.7-4.05-5.5-8.93-5.5-14.91,0-6.65,1.93-11.84,5.89-15.89,3.95-4.04,9-6,15.45-6h27.44v6s9.1,0,9.1,0v-14.86s-35.76,0-35.76,0c-9.79,0-17.65,2.81-23.36,8.36-5.73,5.56-8.64,13.17-8.64,22.62Z"/>
          <g>
            <rect x="312.7" y="45.78" width="86.11" height="8.86"/>
            <polygon points="365.6 36.44 356.51 36.44 356.51 21.58 413.38 21.58 413.38 30.44 365.6 30.44 365.6 36.44"/>
            <polygon points="413.38 73.43 413.38 82.28 356.51 82.28 356.51 64.82 365.6 64.82 365.6 73.43 413.38 73.43"/>
          </g>
          <path d="M470.87,58.59c4.3-.78,7.8-2.47,10.41-5.04,3.34-3.27,5.03-7.66,5.03-13.05,0-5.7-1.76-10.33-5.22-13.76-3.45-3.42-8.11-5.16-13.86-5.16h-44.76v14.86h9.09v-6h33.4c10.49,0,11.71,5.61,11.71,9.82,0,3.27-.82,5.68-2.51,7.38-1.69,1.7-4.09,2.53-7.32,2.53h-44.37v32.11h9.09v-23.26h27.97l17.56,23.26h11.17l-17.39-23.69Z"/>
        </g>
      </g>
    </g>
  </g>
</svg>