<?xml version="1.0" encoding="UTF-8"?>
<svg id="Layer_2" data-name="Layer 2" xmlns="http://www.w3.org/2000/svg" viewBox="0 0 414.16 60.7">
  <g id="Layer_1-2" data-name="Layer 1">
    <g>
      <polygon points="9.09 0 0 0 0 60.7 52.87 60.7 52.87 51.85 9.09 51.85 9.09 0"/>
      <g>
        <rect x="61.96" y="24.2" width="42.3" height="8.86"/>
        <polygon points="71.05 14.86 61.96 14.86 61.96 0 118.83 0 118.83 8.86 71.05 8.86 71.05 14.86"/>
        <polygon points="118.83 51.85 118.83 60.7 61.96 60.7 61.96 43.24 71.05 43.24 71.05 51.85 118.83 51.85"/>
      </g>
      <path d="M187.04,8.36C181.33,2.81,173.47,0,163.68,0h-35.76v14.86h9.1v-6h27.44c6.45,0,11.5,1.96,15.45,6,3.96,4.05,5.89,9.24,5.89,15.89,0,5.98-1.8,10.86-5.5,14.91-3.82,4.16-8.51,6.19-14.35,6.19h-28.93v-8.61h-9.1v17.46h37.64c8.54,0,15.77-2.84,21.49-8.44,5.72-5.61,8.63-12.77,8.63-21.28,0-9.45-2.91-17.06-8.64-22.62Z"/>
      <path d="M203.04,30.98c0,8.51,2.91,15.67,8.63,21.28,5.72,5.6,12.95,8.44,21.49,8.44h37.64s0-30.35,0-30.35h-9.1s0,21.5,0,21.5h-28.93c-5.84,0-10.53-2.03-14.35-6.19-3.7-4.05-5.5-8.93-5.5-14.91,0-6.65,1.93-11.84,5.89-15.89,3.95-4.04,9-6,15.45-6h27.44v6s9.1,0,9.1,0V0s-35.76,0-35.76,0c-9.79,0-17.65,2.81-23.36,8.36-5.73,5.56-8.64,13.17-8.64,22.62Z"/>
      <g>
        <rect x="238.6" y="24.2" width="86.11" height="8.86"/>
        <polygon points="291.5 14.86 282.41 14.86 282.41 0 339.28 0 339.28 8.86 291.5 8.86 291.5 14.86"/>
        <polygon points="339.28 51.85 339.28 60.7 282.41 60.7 282.41 43.24 291.5 43.24 291.5 51.85 339.28 51.85"/>
      </g>
      <path d="M396.77,37.01c4.3-.78,7.8-2.47,10.41-5.04,3.34-3.27,5.03-7.66,5.03-13.05,0-5.7-1.76-10.33-5.22-13.76C403.54,1.74,398.88,0,393.13,0h-44.76v14.86h9.09v-6h33.4c10.49,0,11.71,5.61,11.71,9.82,0,3.27-.82,5.68-2.51,7.38-1.69,1.7-4.09,2.53-7.32,2.53h-44.37v32.11h9.09v-23.26h27.97l17.56,23.26h11.17l-17.39-23.69Z"/>
    </g>
  </g>
</svg>