<?xml version="1.0" encoding="UTF-8"?>
<svg id="Layer_2" data-name="Layer 2" xmlns="http://www.w3.org/2000/svg" xmlns:xlink="http://www.w3.org/1999/xlink" viewBox="0 0 57.87 62.87">
  <defs>
    <style>
      .cls-1 {
        fill: url(#radial-gradient);
        stroke: #03f300;
        stroke-miterlimit: 10;
      }
    </style>
    <radialGradient id="radial-gradient" cx="625.26" cy="-.42" fx="625.26" fy="-.42" r="53.24" gradientTransform="translate(-741.43) scale(1.22 1)" gradientUnits="userSpaceOnUse">
      <stop offset="0" stop-color="lime"/>
      <stop offset=".15" stop-color="#00fb00"/>
      <stop offset=".27" stop-color="#03f200"/>
      <stop offset=".37" stop-color="#08e100"/>
      <stop offset=".47" stop-color="#0fca00"/>
      <stop offset=".57" stop-color="#17ad00"/>
      <stop offset=".65" stop-color="#228900"/>
      <stop offset=".67" stop-color="#248300"/>
      <stop offset="1" stop-color="#12c000"/>
    </radialGradient>
  </defs>
  <g id="Layer_1-2" data-name="Layer 1">
    <path class="cls-1" d="M57.34,60.35c.07,1.43-1.31,2.32-3.05,1.93-.09.06-47.13-11.76-47.24-11.74-1.32-.35-1.34-1.63,0-1.41l45.67,8.01V16.33L7.05,12.46c-1.28-.09-1.59-1.34-.36-1.57,0,0,41.3-10.04,41.3-10.04l.75-.22c2.02-.62,4.13,1.03,3.39,2.64,0,0-2.26,5.27-2.26,5.27-.26.69-1.58.62-1.84-.05,0,0-.49-1.15-1.02-2.38l-30.47,4.86,37.62-.14c1.73,0,3.18,1.2,3.18,2.62.11.06-.08,46.79,0,46.89ZM25.31,39.18c-.32-.85-.61-1.63-.61-1.63-.36-1.05-2.45-1.37-2.83-.42,0,0-1.41,3.3-1.41,3.3-.42.91.68,2.13,2.13,2.37l.69.12,5.05.87,1.57,4.09c.34.95,2.14,1.31,2.49.46l1.57-3.59,5.05.87c1.56.27,2.83-.49,2.83-1.69v-8.96c0-1.2-1.27-2.33-2.83-2.52l-12.89-1.57v-4.23l10.91,1.14.69,1.82c.35.99,2.23,1.23,2.59.29.05-.19,1.77-4.18,1.62-4.25,0-.93-.98-1.78-2.2-1.89l-.72-.06-5.05-.45-1.57-4c-.34-.92-2.14-1.06-2.49-.18l-1.57,3.68-5.05-.45c-1.56-.14-2.83.65-2.83,1.75v8.14c0,1.1,1.27,2.17,2.83,2.39l12.89,1.78v4.51l-10.87-1.69ZM1.03,16.78c1.8.83,3.86.98,5.8.75,2.9-.45,2.89-1.13,0-1.98-1.94-.5-4-.64-5.8-.05-.71.23-.71.95,0,1.28ZM6.83,44.67c-1.94-.74-4-1.14-5.8-.79-.71.14-.71.86,0,1.28,1.8,1.06,3.86,1.47,5.8,1.49,2.9-.08,2.89-.77,0-1.98ZM1.03,38.07c1.8,1,3.86,1.34,5.8,1.3,2.9-.17,2.89-.86,0-1.98-1.94-.68-4-1.02-5.8-.6-.71.17-.71.88,0,1.28ZM1.03,30.98c1.8.95,3.86,1.22,5.8,1.12,2.9-.27,2.89-.95,0-1.98-1.94-.62-4-.89-5.8-.42-.71.19-.71.9,0,1.28ZM1.03,23.88c1.8.89,3.86,1.1,5.8.94,2.9-.36,2.89-1.04,0-1.98-1.94-.56-4-.76-5.8-.24-.71.21-.71.93,0,1.28Z"/>
  </g>
</svg>