<svg id="etXOKn7sjFS1" xmlns="http://www.w3.org/2000/svg" xmlns:xlink="http://www.w3.org/1999/xlink" viewBox="0 0 3000 380" shape-rendering="geometricPrecision" text-rendering="geometricPrecision"><style><![CDATA[#etXOKn7sjFS12 {animation: etXOKn7sjFS12_s_do 2000ms linear 1 normal forwards}@keyframes etXOKn7sjFS12_s_do { 0% {stroke-dashoffset: 1966.69;animation-timing-function: cubic-bezier(0.19,1,0.22,1)} 20% {stroke-dashoffset: 0} 100% {stroke-dashoffset: 0}} #etXOKn7sjFS17 {animation: etXOKn7sjFS17_s_do 2000ms linear 1 normal forwards}@keyframes etXOKn7sjFS17_s_do { 0% {stroke-dashoffset: 1571.4} 8% {stroke-dashoffset: 1571.4;animation-timing-function: cubic-bezier(0.19,1,0.22,1)} 28% {stroke-dashoffset: 0} 100% {stroke-dashoffset: 0}} #etXOKn7sjFS22 {animation: etXOKn7sjFS22_s_do 2000ms linear 1 normal forwards}@keyframes etXOKn7sjFS22_s_do { 0% {stroke-dashoffset: -320.75} 28.5% {stroke-dashoffset: -320.75;animation-timing-function: cubic-bezier(0.19,1,0.22,1)} 43.5% {stroke-dashoffset: 0} 100% {stroke-dashoffset: 0}} #etXOKn7sjFS23 {animation: etXOKn7sjFS23_s_do 2000ms linear 1 normal forwards}@keyframes etXOKn7sjFS23_s_do { 0% {stroke-dashoffset: 1412.98} 18.5% {stroke-dashoffset: 1412.98;animation-timing-function: cubic-bezier(0.19,1,0.22,1)} 38.5% {stroke-dashoffset: 0} 100% {stroke-dashoffset: 0}} #etXOKn7sjFS28 {animation: etXOKn7sjFS28_s_do 2000ms linear 1 normal forwards}@keyframes etXOKn7sjFS28_s_do { 0% {stroke-dashoffset: 1470.05} 34% {stroke-dashoffset: 1470.05;animation-timing-function: cubic-bezier(0.19,1,0.22,1)} 54% {stroke-dashoffset: 0} 100% {stroke-dashoffset: 0}} #etXOKn7sjFS33 {animation: etXOKn7sjFS33_s_do 2000ms linear 1 normal forwards}@keyframes etXOKn7sjFS33_s_do { 0% {stroke-dashoffset: 2355.11} 44.5% {stroke-dashoffset: 2355.11;animation-timing-function: cubic-bezier(0.19,1,0.22,1)} 64.5% {stroke-dashoffset: 0} 100% {stroke-dashoffset: 0}} #etXOKn7sjFS38 {animation: etXOKn7sjFS38_s_do 2000ms linear 1 normal forwards}@keyframes etXOKn7sjFS38_s_do { 0% {stroke-dashoffset: 1569.29} 55.5% {stroke-dashoffset: 1569.29;animation-timing-function: cubic-bezier(0.19,1,0.22,1)} 75.5% {stroke-dashoffset: 0} 100% {stroke-dashoffset: 0}} #etXOKn7sjFS43 {animation: etXOKn7sjFS43_s_do 2000ms linear 1 normal forwards}@keyframes etXOKn7sjFS43_s_do { 0% {stroke-dashoffset: 1713.35} 67% {stroke-dashoffset: 1713.35;animation-timing-function: cubic-bezier(0.19,1,0.22,1)} 87% {stroke-dashoffset: 0} 100% {stroke-dashoffset: 0}} #etXOKn7sjFS48 {animation: etXOKn7sjFS48_s_do 2000ms linear 1 normal forwards}@keyframes etXOKn7sjFS48_s_do { 0% {stroke-dashoffset: 1470.05} 79% {stroke-dashoffset: 1470.05;animation-timing-function: cubic-bezier(0.19,1,0.22,1)} 99% {stroke-dashoffset: 0} 100% {stroke-dashoffset: 0}}]]></style><defs><path id="etXOKn7sjFS2" d="M239.2,370.7C221.4,370.7,203.9,368.2,187.1,363.3C170.5,358.4,154.9,350.6,140.5,340L140.4,339.9C114.6,321.2,97.6,295.3,88.4,260.6C85.6,248.6,84.2,236.4,84.2,224.6C84.2,210.6,86.2,196.3,90.2,182.2C97.5,156.6,110.8,134,130,114.8C158.9,87.5,192.1,74.2,231.4,74.2L236.8,74.2C269,74.2,296.1,85,319.8,107.2L323.5,110.6L385.7,110.6L369.9,90.1C358.3,75,344.2,62,328.2,51.5C301.8,34.2,271.9,25.4,239.3,25.4C203.6,25.4,171.2,35.8,143.2,56.4C128.1,64.4,114.3,74.5,102.2,86.5C88.4,100.2,76.9,115.5,68,132.2C69.4,128.1,71,124,72.7,120C82.1,98.2,95.1,78.9,111.5,62.5C127.9,46.1,147.2,33.1,169,23.7C190.7,14.4,214.3,9.6,239.2,9.6C274.8,9.6,307.5,19.2,336.3,38C357.9,52.2,374.3,67.9,385.2,84.5L385.4,84.8C391.2,93.1,396.8,102.6,402,113C404.3,117.5,406.3,121.9,408.2,126.3L316.1,126.3C303.9,113,291.2,103.5,278.3,98C265.9,92.5,251.1,89.6,234.1,89.6C231.3,89.6,228.5,89.7,225.7,89.9C190.9,92.3,162.3,104.4,141,126C124.1,142.9,112.1,163.2,105.5,186.4C101.9,199.1,100.1,211.8,100.1,224.4C100.1,235.1,101.4,245.9,104,256.5C107.8,272.6,114.9,287.9,125.1,301.8C135.4,315.8,149.3,327.8,166.4,337.7L166.6,337.8L166.8,337.9C185.8,348,207.2,353.1,230.2,353.1C254.2,353.1,276.7,349,297.2,340.9C317.8,332.8,337,320.5,354.3,304.4C384.8,275.6,401.9,240,405.2,198.5L406.3,184.8L252.7,184.8L252.7,229.1L342.9,229.1C337.3,249.5,326.4,266.4,309.8,280.4C289.3,297.7,266.3,306.1,239.3,306.1C223.3,306.1,208.2,303.1,194.3,297C180.3,290.9,167.8,282.6,157.2,272.1C153.1,267.9,149.3,263.4,145.8,258.8C144.4,255.2,143.1,251.4,142.2,247.4C140.5,239.8,139.6,232.1,139.6,224.7C139.6,219.5,140,214.2,140.8,209C144.3,228.7,153.6,246.1,168.5,261C188,280.3,211.8,290.1,239.3,290.1C249.8,290.1,263.7,288.8,273.9,284C311,266.4,316.8,245,316.8,245L236.9,245L236.9,168.8L421,168.8C421.1,172,421.2,175.1,421.2,178.2C421.2,199.2,419,218.7,414.6,236.3C409,259,396.5,282.5,377.6,306.1L377.5,306.2C367.3,319.2,353,331.6,335.1,343C306.4,361.3,274.2,370.7,239.2,370.7Z"/><path id="etXOKn7sjFS3" d="M540.1,370.7C545.1,358,550.1,345.2,554.9,332.5L568.9,296.8L767.3,296.8L791.3,354.9L738,354.9L733.4,343L716.4,343C720,352.3,723.8,361.5,727.6,370.7L815.2,370.7L777.9,281L558.1,281L529.5,354.9L476.3,354.9L614.8,25.5L654.1,25.5L734.9,218.7L599.7,218.7L633.9,138.2L648.9,172.5L665.9,172.5L634.3,97.5L626.9,114.7L580.5,223.6L575.7,234.7L758.4,234.7L664.7,9.7L604.3,9.7L452.4,370.7L540.1,370.7Z"/><path id="etXOKn7sjFS4" d="M878.1,370.7L878.1,215C878.2,210.2,879.3,205.9,881.3,201.6C883.8,196.7,887.2,192.7,891.6,189.3L891.7,189.2C897,185.1,902.9,182.8,909.8,182.2L943,182L977,182.3L1007.5,182.3C1028.9,182.3,1047.5,174.5,1062.9,159.2C1078.1,144,1085.8,125.5,1085.8,104.1C1085.8,82.5,1078.1,63.9,1062.9,48.7C1047.5,33.3,1028.9,25.6,1007.5,25.6L893.9,25.6L893.9,133.7L910.8,127.8C916.6,125.8,922.8,124.7,929.2,124.7L1000.1,124.7C1005.7,124.7,1010.7,122.6,1014.6,118.7C1018.5,114.8,1020.6,109.7,1020.6,104.2C1020.6,98.4,1018.4,93.1,1014.3,89.3C1010.4,85.6,1005.4,83.7,1000,83.7L942,83.7L942,67.4L1000.2,67.4C1010.2,67.4,1018.6,70.9,1025.9,78.2C1033.2,85.9,1036.8,94.3,1036.8,104.1C1036.8,114.1,1033.3,122.4,1026.1,129.5C1018.4,136.9,1010,140.5,1000.2,140.5L912.6,140.5C900.7,140.5,889.6,142.9,879.6,147.7L879.5,147.7C879,147.9,878.6,148.1,878.1,148.4L878.1,9.7L1007.5,9.7C1020.4,9.7,1032.7,12.2,1044,17C1055.4,21.9,1065.5,28.7,1074,37.2C1082.7,45.9,1089.6,56.1,1094.5,67.5C1099.4,78.8,1101.8,91.1,1101.8,104C1101.8,116.7,1099.3,128.9,1094.5,140.2C1089.6,151.6,1082.7,161.8,1074,170.5C1057.1,187.4,1036.6,196.4,1011.1,198L928.2,198C913.5,198,907.9,199.4,904.1,201.4C897.3,205,893.9,212.2,893.9,222.6L893.9,354.8L1023.9,354.8C1045.3,354.8,1063.9,347,1079.3,331.7C1094.5,316.5,1102.2,298,1102.2,276.6C1102.2,255.3,1094.7,236.9,1079.9,221.8C1084.4,219,1088.8,215.9,1093.1,212.6C1100.6,220.7,1106.6,229.9,1111,240.1C1115.9,251.4,1118.3,263.7,1118.3,276.6C1118.3,289.3,1115.8,301.5,1111,312.8C1106.1,324.2,1099.2,334.4,1090.5,343.1C1082,351.6,1071.9,358.4,1060.5,363.3C1049.2,368.2,1036.9,370.6,1024,370.6L878.1,370.6ZM942,312.9L942,239.9L1016.6,239.9C1026.7,239.9,1035.1,243.4,1042.4,250.7C1049.7,258,1053.2,266.4,1053.2,276.5C1053.2,286.5,1049.7,294.9,1042.4,302.1C1035.1,309.3,1026.7,312.8,1016.6,312.8L942,312.8ZM958.1,296.9L1016.7,296.9C1022.1,296.9,1027,295,1031,291.3C1035.1,287.5,1037.3,282.3,1037.3,276.6C1037.3,270.8,1035.1,265.5,1031,261.7C1027.1,258,1022.2,256.1,1016.7,256.1L958.1,256.1L958.1,296.9Z"/><path id="etXOKn7sjFS5" d="M1207.2,370.7L1207.2,244.8C1207.2,236.5,1210.3,229.3,1216.6,222.6C1223.3,216.4,1230.5,213.3,1238.6,213.3L1366.8,213.3L1366.8,167.1L1239.7,167.1C1229.4,167.1,1219.5,169.1,1210.1,172.9L1210,172.9C1209,173.3,1208.1,173.7,1207.2,174.2L1207.2,9.7L1408.5,9.7L1408.5,87.8L1287.2,87.8L1287.2,102.6L1271.1,102.6L1271.1,71.7L1392.7,71.7L1392.7,25.5L1223,25.5L1223,153.1L1237.2,151.5C1243,150.8,1249.4,150.5,1256.3,150.5L1382.7,151.2L1382.7,229.1L1238.8,229.1C1234.7,229.1,1230.8,230.7,1227.9,233.6C1225.6,236,1224,239,1223.3,242.3L1223.1,243.5L1223.1,354.8L1392.8,354.8L1392.8,308.6L1271.2,308.6L1271.2,277.2L1287.3,277.2L1287.3,292.6L1408.6,292.6L1408.6,370.7L1207.2,370.7Z"/><path id="etXOKn7sjFS6" d="M1788.9,370.7L1788.9,362.7L1788.5,182L1712.2,331.9L1658.3,331.9L1592,201L1517.7,55.7L1517.7,354.6L1565.8,354.6L1566,256.7L1581.6,287.7L1581.6,370.6L1502,370.6L1502,9.4L1512.4,9.4C1562.9,109.6,1614,210.4,1664.5,309.1L1668,316L1702.5,316L1804.4,116.3L1804.4,354.6L1852.8,354.6L1852.8,25.5L1795.8,25.5L1685.3,246.3L1629.3,134.7C1607.4,91,1586.8,49.8,1566.6,9.4L1584.5,9.4L1685.3,211L1785.9,9.4L1868.6,9.4L1868.6,370.6L1788.9,370.6Z"/><path id="etXOKn7sjFS7" d="M2206.4,370.7C2201.4,358.1,2196.5,345.3,2191.6,332.5L2177.6,296.8L1979.2,296.8L1955.2,354.9L2008.6,354.9L2013.2,343L2030.2,343C2026.6,352.3,2022.8,361.5,2019,370.7L1931.4,370.7L1968.8,281L2188.6,281L2217.2,354.9L2270.5,354.9L2131.8,25.5L2092.5,25.5L2011.7,218.7L2146.9,218.7L2112.7,138.1L2097.7,172.4L2080.7,172.4L2105.1,114.6L2112.3,97.5L2119.7,114.7L2166.1,223.6L2170.9,234.7L1988.2,234.7L2081.9,9.7L2142.3,9.7L2294.2,370.7L2206.4,370.7Z"/><path id="etXOKn7sjFS8" d="M2357.1,9.7L2357.1,308.6L2451.7,308.6C2472.7,308.6,2493.4,305.1,2513.1,298.3C2536.3,289.2,2553.8,275,2566.5,255C2579.2,235,2585.7,212.5,2585.7,188.4C2585.7,166.3,2580,145.8,2568.8,127.7C2557.7,109.6,2542,95.4,2522.2,85.6C2509.4,79.6,2495.8,75.8,2482,74.2C2467.2,72.6,2452.1,71.7,2437.2,71.7L2421,71.7L2421,244.4L2437.1,244.4L2437.1,87.8L2449.8,87.8C2466.2,87.8,2481.8,89.5,2496.3,92.8C2512.1,96.4,2526.8,104.5,2539.9,116.8L2540.1,117L2540.3,117.2C2559.7,137,2569.6,161,2569.6,188.4C2569.6,197,2568.7,205.4,2566.9,213.3C2559.5,246.7,2539.6,270.3,2507.8,283.5L2507.6,283.6L2507.4,283.7C2498.3,287.1,2488.5,289.4,2478.4,290.7C2468.7,291.9,2459.1,292.6,2449.8,292.6L2373.2,292.6L2373.2,25.5L2439.1,25.5C2470.5,25.5,2494.8,27.5,2513.4,31.7L2513.5,31.7C2525.7,34.6,2537.3,38.8,2547.8,44C2569.5,55,2587.6,70.3,2601.6,89.6C2615.4,108.7,2625,130.2,2630,153.6L2630.1,153.9C2632.4,165.8,2633.6,177.7,2633.6,189.2C2633.6,213.3,2628.6,237,2618.8,259.7C2609.4,281.9,2595.5,301.1,2577.4,316.7L2577.2,316.8L2577,316.9C2557.9,332.3,2536.1,342.7,2512.1,348C2499.9,350.6,2487.3,352.4,2474.6,353.4C2462.2,354.3,2449.7,354.8,2437.4,354.8L2357.1,354.8L2357.1,370.6L2437.4,370.6C2450.3,370.6,2463.7,370.1,2477.3,369C2490.6,368,2503.6,366.1,2516.1,363.3C2542.5,357.5,2566.4,345.9,2587.2,328.8C2607.3,311.5,2622.7,290.4,2633,266.2C2643.8,241.2,2649.2,215.4,2649.2,189.2C2649.2,176.5,2647.9,163.3,2645.4,150.2C2639.7,124.3,2629,100.5,2613.5,79.4C2598.2,58.5,2578.3,41.7,2554.6,29.6C2543,24,2530.2,19.5,2516.7,16.3C2497.1,11.9,2470.9,9.6,2438.9,9.6L2357.1,9.6Z"/><path id="etXOKn7sjFS9" d="M2730.7,9.7L2730.7,135.6C2730.7,143.9,2733.8,151.1,2740.1,157.8C2746.8,164,2754,167.1,2762.1,167.1L2890.3,167.1L2890.3,213.3L2763.2,213.3C2752.9,213.3,2743,211.3,2733.6,207.5L2733.5,207.5C2732.5,207.1,2731.6,206.7,2730.7,206.2L2730.7,370.7L2932,370.7L2932,292.6L2810.7,292.6L2810.7,277.8L2794.6,277.8L2794.6,308.7L2916.2,308.7L2916.2,354.9L2746.5,354.9L2746.5,227.3L2760.7,228.9C2766.5,229.6,2772.9,229.9,2779.7,229.9L2906.1,229.2L2906.1,151.3L2762.2,151.3C2758.1,151.3,2754.3,149.7,2751.3,146.8C2748.9,144.4,2747.4,141.4,2746.7,138L2746.5,136.8L2746.5,25.5L2916.2,25.5L2916.2,71.7L2794.6,71.7L2794.6,103.1L2810.7,103.1L2810.7,87.8L2932,87.8L2932,9.7L2730.7,9.7Z"/></defs><g id="etXOKn7sjFS10"><g id="etXOKn7sjFS11" clip-path="url(#etXOKn7sjFS13)"><path id="etXOKn7sjFS12" d="M51,150.2C78.6,74.7,263.3,-84.4,398,116.6C322.5,116.6,322.5,116.6,322.5,116.6C322.5,116.6,229.6,38,139.8,114.6C50,191.2,96.9,323.8,177.6,351.3C258.2,378.9,401.1,350.3,415.4,176.8C281.7,176.8,261.3,176.8,247,175.8C246,200.3,245,231.9,245,231.9L334.8,235C334.8,235,304.2,318.7,207.2,291.1C110.2,263.5,145,168.7,145,168.7" fill="none" stroke="rgb(255,255,255)" stroke-width="26" stroke-miterlimit="10" stroke-dashoffset="1966.69" stroke-dasharray="1966.69"/><clipPath id="etXOKn7sjFS13"><use id="etXOKn7sjFS14" width="353.200012" height="361.100006" xlink:href="#etXOKn7sjFS2" fill="rgb(0,0,0)" stroke="none" stroke-width="1"/></clipPath></g></g><g id="etXOKn7sjFS15"><g id="etXOKn7sjFS16" clip-path="url(#etXOKn7sjFS18)"><polyline id="etXOKn7sjFS17" points="714.3,321.7 732.7,360.4 802,360.4 771.4,287 561.2,287 536.7,360.4 463.3,360.4 610.2,13.4 662.3,13.4 746.9,225.8 587.8,225.8 632.7,109.4 662.2,180.9" fill="none" stroke="rgb(255,255,255)" stroke-width="26" stroke-miterlimit="10" stroke-dashoffset="1571.4" stroke-dasharray="1571.4"/><clipPath id="etXOKn7sjFS18"><use id="etXOKn7sjFS19" width="362.800018" height="361" xlink:href="#etXOKn7sjFS3" fill="rgb(0,0,0)" stroke="none" stroke-width="1"/></clipPath></g></g><g id="etXOKn7sjFS20"><g id="etXOKn7sjFS21" transform="matrix(1 0 0 1 0 0.000001)" clip-path="url(#etXOKn7sjFS24)"><path id="etXOKn7sjFS22" d="M957.215702,250.199999C957.215702,250.199999,979.6,250.2,1004,250.2C1028.5,250.2,1042.8,249.2,1042.8,274.7C1042.8,300.2,1028.5,305.3,1010.1,305.3C991.7,305.3,944.8,305.3,944.8,305.3L946.8,213.5" fill="none" stroke="rgb(255,255,255)" stroke-width="26" stroke-miterlimit="10" stroke-dashoffset="-320.75" stroke-dasharray="320.75"/><path id="etXOKn7sjFS23" d="M937.9,70.7C937.9,70.7,969.4,70.7,996,70.7C1022.5,70.7,1026.6,89.1,1026.6,101.3C1026.6,113.5,1031.7,134,985.8,134C939.9,134,920.5,134,920.5,134C920.5,134,888.9,129.9,884.8,144.2C884.8,73.8,884.8,17.7,884.8,17.7L1014.4,17.7C1014.4,17.7,1092,25.9,1092,101.4C1092,176.9,1027.6,189,998,189C968.4,189,922.5,189,922.5,189C922.5,189,884.8,180.8,884.8,238L884.8,360.4C884.8,360.4,991.9,360.4,1014.4,360.4C1036.8,360.4,1108.3,341,1108.3,286.9C1108.3,232.8,1083.8,211.4,1083.8,211.4" fill="none" stroke="rgb(255,255,255)" stroke-width="26" stroke-miterlimit="10" stroke-dashoffset="1412.98" stroke-dasharray="1412.98"/><clipPath id="etXOKn7sjFS24"><use id="etXOKn7sjFS25" width="240.200073" height="361" xlink:href="#etXOKn7sjFS4" fill="rgb(0,0,0)" stroke="none" stroke-width="1"/></clipPath></g></g><g id="etXOKn7sjFS26"><g id="etXOKn7sjFS27" clip-path="url(#etXOKn7sjFS29)"><path id="etXOKn7sjFS28" d="M1277.6,105.3L1277.6,78.8L1398,78.8L1398,17.6L1216.4,17.6L1216.4,175.5C1216.4,175.5,1215.4,158.4,1261.3,158.4C1307.2,158.4,1375.6,158.4,1375.6,158.4L1375.6,217.6L1255.2,217.6C1255.2,217.6,1212.3,210.5,1212.3,258.4C1212.3,306.3,1212.3,364.5,1212.3,364.5L1396,364.5L1396,301.2L1275.6,301.2L1275.6,266.5" fill="none" stroke="rgb(255,255,255)" stroke-width="26" stroke-miterlimit="10" stroke-dashoffset="1470.05" stroke-dasharray="1470.05"/><clipPath id="etXOKn7sjFS29"><use id="etXOKn7sjFS30" width="201.400024" height="361" xlink:href="#etXOKn7sjFS5" fill="rgb(0,0,0)" stroke="none" stroke-width="1"/></clipPath></g></g><g id="etXOKn7sjFS31"><g id="etXOKn7sjFS32" clip-path="url(#etXOKn7sjFS34)"><polyline id="etXOKn7sjFS33" points="1569.4,238 1569.4,362.5 1506.1,362.5 1506.1,9.4 1663.3,327.8 1704.1,327.8 1798,142.1 1798,362.5 1859.2,362.5 1859.2,17.6 1785.7,17.6 1683.7,231.9 1563.3,-13" fill="none" stroke="rgb(255,255,255)" stroke-width="26" stroke-miterlimit="10" stroke-dashoffset="2355.11" stroke-dasharray="2355.11"/><clipPath id="etXOKn7sjFS34"><use id="etXOKn7sjFS35" width="366.599976" height="361.300018" xlink:href="#etXOKn7sjFS6" fill="rgb(0,0,0)" stroke="none" stroke-width="1"/></clipPath></g></g><g id="etXOKn7sjFS36"><g id="etXOKn7sjFS37" clip-path="url(#etXOKn7sjFS39)"><polyline id="etXOKn7sjFS38" points="2028.6,321.7 2010.2,360.4 1940.8,360.4 1971.4,287 2181.6,287 2206.1,360.4 2279.6,360.4 2132.7,13.4 2084.6,13.4 1995.9,225.8 2155.1,225.8 2110.2,109.4 2080.6,180.9" fill="none" stroke="rgb(255,255,255)" stroke-width="26" stroke-miterlimit="10" stroke-dashoffset="1569.29" stroke-dasharray="1569.29"/><clipPath id="etXOKn7sjFS39"><use id="etXOKn7sjFS40" width="362.799561" height="361" xlink:href="#etXOKn7sjFS7" fill="rgb(0,0,0)" stroke="none" stroke-width="1"/></clipPath></g></g><g id="etXOKn7sjFS41"><g id="etXOKn7sjFS42" clip-path="url(#etXOKn7sjFS44)"><path id="etXOKn7sjFS43" d="M2424.5,250.2L2424.5,80.9C2424.5,80.9,2568.4,57.4,2576.5,189.1C2584.7,320.7,2414.3,299.3,2414.3,299.3L2361.2,299.3L2361.2,13.5C2361.2,13.5,2431.6,14.5,2504.1,23.7C2576.6,32.9,2638.8,95.1,2638.8,189C2638.8,282.9,2592.9,312.5,2549,344.1C2505.1,375.7,2355.1,360.4,2355.1,360.4" fill="none" stroke="rgb(255,255,255)" stroke-width="26" stroke-miterlimit="10" stroke-dashoffset="1713.35" stroke-dasharray="1713.35"/><clipPath id="etXOKn7sjFS44"><use id="etXOKn7sjFS45" width="292.100342" height="361.000031" xlink:href="#etXOKn7sjFS8" fill="rgb(0,0,0)" stroke="none" stroke-width="1"/></clipPath></g></g><g id="etXOKn7sjFS46"><g id="etXOKn7sjFS47" clip-path="url(#etXOKn7sjFS49)"><path id="etXOKn7sjFS48" d="M2802,276.8L2802,303.3L2922.4,303.3L2922.4,364.5L2740.8,364.5L2740.8,206.6C2740.8,206.6,2739.8,223.7,2785.7,223.7C2831.6,223.7,2900,223.7,2900,223.7L2900,164.5L2779.6,164.5C2779.6,164.5,2736.7,171.6,2736.7,123.7C2736.7,75.8,2736.7,17.6,2736.7,17.6L2920.4,17.6L2920.4,80.9L2800,80.9L2800,115.6" fill="none" stroke="rgb(255,255,255)" stroke-width="26" stroke-miterlimit="10" stroke-dashoffset="1470.05" stroke-dasharray="1470.05"/><clipPath id="etXOKn7sjFS49"><use id="etXOKn7sjFS50" width="201.300537" height="361" xlink:href="#etXOKn7sjFS9" fill="rgb(0,0,0)" stroke="none" stroke-width="1" stroke-dashoffset="1124.6" stroke-dasharray="1124.6"/></clipPath></g></g></svg>