<?xml version="1.0" encoding="UTF-8"?>
<svg id="Layer_2" data-name="Layer 2" xmlns="http://www.w3.org/2000/svg" xmlns:xlink="http://www.w3.org/1999/xlink" viewBox="0 0 102.23 108.92">
  <defs>
    <style>
      .cls-1 {
        fill: url(#radial-gradient);
        stroke: #03f300;
        stroke-miterlimit: 10;
      }
    </style>
    <radialGradient id="radial-gradient" cx="177.04" cy="-1.11" fx="177.04" fy="-1.11" r="93.2" gradientTransform="translate(-177.5) scale(1.22 1)" gradientUnits="userSpaceOnUse">
      <stop offset="0" stop-color="lime"/>
      <stop offset=".15" stop-color="#00fb00"/>
      <stop offset=".27" stop-color="#03f200"/>
      <stop offset=".37" stop-color="#08e100"/>
      <stop offset=".47" stop-color="#0fca00"/>
      <stop offset=".57" stop-color="#17ad00"/>
      <stop offset=".65" stop-color="#228900"/>
      <stop offset=".67" stop-color="#248300"/>
      <stop offset="1" stop-color="#12c000"/>
    </radialGradient>
  </defs>
  <g id="Layer_1-2" data-name="Layer 1">
    <path class="cls-1" d="M101.67,104.93c.12,2.47-2.27,4.01-5.27,3.33-.16.11-84.41-21.35-84.6-21.32-2.28-.6-2.32-2.82,0-2.44l78.88,13.84V27.85L11.81,21.15c-2.21-.16-2.74-2.32-.62-2.71,0,0,71.33-17.34,71.33-17.34l1.29-.37c3.48-1.08,7.13,1.79,5.86,4.57,0,0-3.91,9.11-3.91,9.11-.46,1.19-2.73,1.07-3.18-.09,0,0-.85-1.99-1.76-4.11l-52.63,8.4,67.98.81c2.98.01,5.49,2.07,5.49,4.52.19.11-.14,80.83,0,81ZM43.36,67.32c-.55-1.47-1.05-2.82-1.05-2.81-.63-1.82-4.23-2.37-4.88-.73,0,0-2.44,5.7-2.44,5.7-.72,1.57,1.18,3.68,3.69,4.09l1.2.21,8.72,1.5,2.71,7.06c.58,1.64,3.7,2.25,4.3.8l2.71-6.2,8.72,1.5c2.7.46,4.88-.84,4.88-2.92v-15.47c0-2.07-2.19-4.02-4.88-4.35l-22.27-2.71v-7.31l18.84,1.97,1.19,3.14c.6,1.71,3.85,2.12,4.47.5.09-.32,3.06-7.23,2.81-7.34,0-1.61-1.7-3.07-3.8-3.26l-1.25-.11-8.72-.77-2.71-6.9c-.58-1.58-3.7-1.82-4.3-.31l-2.71,6.36-8.72-.77c-2.7-.24-4.88,1.12-4.88,3.02v14.05c0,1.91,2.19,3.76,4.88,4.13l22.27,3.07v7.79l-18.78-2.92ZM1.42,28.62c3.1,1.44,6.66,1.69,10.02,1.3,5.02-.78,5-1.95,0-3.42-3.35-.86-6.91-1.1-10.02-.09-1.22.4-1.23,1.64,0,2.22ZM11.44,76.8c-3.35-1.28-6.91-1.97-10.02-1.36-1.22.25-1.23,1.48,0,2.22,3.1,1.83,6.66,2.53,10.02,2.57,5.02-.14,5-1.32,0-3.42ZM1.42,65.4c3.1,1.73,6.66,2.32,10.02,2.25,5.02-.3,5-1.48,0-3.42-3.35-1.17-6.91-1.76-10.02-1.04-1.22.29-1.23,1.52,0,2.22ZM1.42,53.14c3.1,1.63,6.66,2.11,10.02,1.93,5.02-.46,5-1.64,0-3.42-3.35-1.07-6.91-1.54-10.02-.72-1.22.33-1.23,1.56,0,2.22ZM1.42,40.88c3.1,1.54,6.66,1.9,10.02,1.62,5.02-.62,5-1.8,0-3.42-3.35-.96-6.91-1.32-10.02-.41-1.22.36-1.23,1.6,0,2.22Z"/>
  </g>
</svg>