<?xml version="1.0" encoding="UTF-8"?>
<svg id="Layer_2" data-name="Layer 2" xmlns="http://www.w3.org/2000/svg" xmlns:xlink="http://www.w3.org/1999/xlink" viewBox="0 0 738.19 108.92">
  <defs>
    <style>
      .cls-1 {
        fill: url(#radial-gradient);
        stroke: #03f300;
        stroke-miterlimit: 10;
      }
    </style>
    <radialGradient id="radial-gradient" cx="648.51" cy="-1.11" fx="648.51" fy="-1.11" r="93.2" gradientTransform="translate(-117.14) scale(1.22 1)" gradientUnits="userSpaceOnUse">
      <stop offset="0" stop-color="lime"/>
      <stop offset=".15" stop-color="#00fb00"/>
      <stop offset=".27" stop-color="#03f200"/>
      <stop offset=".37" stop-color="#08e100"/>
      <stop offset=".47" stop-color="#0fca00"/>
      <stop offset=".57" stop-color="#17ad00"/>
      <stop offset=".65" stop-color="#228900"/>
      <stop offset=".67" stop-color="#248300"/>
      <stop offset="1" stop-color="#12c000"/>
    </radialGradient>
  </defs>
  <g id="Layer_1-2" data-name="Layer 1">
    <g>
      <g>
        <path d="M549.22,58.6v-11.33h2.85v8.78h3.3v2.54h-6.15Z"/>
        <path d="M556.43,58.6v-11.33h6.2v2.54h-3.47v1.76h3.36v2.54h-3.36v1.94h3.47v2.54h-6.2Z"/>
        <path d="M568.43,58.6h-3.9v-11.33h3.69c2.02,0,3.66.34,4.93,2.11.72,1.03,1.03,2.26,1.03,3.52,0,3.72-2.1,5.69-5.74,5.69ZM568.61,49.81h-1.24v6.24h1.22c1.94,0,2.73-1.27,2.73-3.11s-.81-3.14-2.71-3.14Z"/>
        <path d="M581.25,58.83c-3.29,0-5.92-2.59-5.92-5.94s2.7-5.83,5.97-5.83c2.41,0,4.9,1.59,5.58,4.01h-3.2c-.51-.93-1.4-1.47-2.46-1.47-1.82,0-3.05,1.5-3.05,3.29s1.16,3.4,3.06,3.4c1.22,0,2.32-.57,2.67-1.82h-3.33v-2.31h6.62c.02.2.02.4.02.6,0,3.47-2.53,6.08-5.96,6.08Z"/>
        <path d="M588.76,58.6v-11.33h6.2v2.54h-3.47v1.76h3.36v2.54h-3.36v1.94h3.47v2.54h-6.2Z"/>
        <path d="M602.27,58.6l-2.58-3.66h-.03v3.66h-2.73v-11.33h3.53c1.18,0,2.47.03,3.44.81.92.75,1.37,1.91,1.37,3.09,0,1.75-1.01,3.28-2.77,3.57l3.03,3.86h-3.26ZM600.7,49.81h-1.04v3.15h1.01c1.07,0,1.87-.46,1.87-1.62s-.86-1.53-1.84-1.53Z"/>
      </g>
      <g>
        <polygon points="605.77 75.49 605.77 83.99 549.11 83.99 549.11 66.62 558.41 66.62 558.41 75.49 605.77 75.49"/>
        <path d="M54.85,62.61c0,3.55,0,14.34-22.71,14.34s-22.87-10.8-22.87-14.34V23.36H0v41.16c0,6.41,3.07,11.7,9.13,15.71,5.77,3.82,13.52,5.77,23,5.77s17.29-1.97,23.03-5.84c5.93-3.9,8.94-9.15,8.94-15.63V23.36h-9.26v39.25Z"/>
        <polygon points="132.68 71.97 87.89 23.36 77.52 23.36 77.52 84.33 86.78 84.33 86.78 35.7 131.69 84.33 141.95 84.33 141.95 23.36 132.68 23.36 132.68 71.97"/>
        <path d="M216.08,29.87c-6.73-5.52-15.13-8.32-24.94-8.32s-18.28,2.8-25.01,8.34c-7.53,6.19-11.35,14.23-11.35,23.89s3.79,17.83,11.28,23.97c6.68,5.45,15.12,8.24,25.1,8.24s18.33-2.77,25.01-8.24c7.48-6.14,11.27-14.21,11.27-23.97,0-9.69-3.82-17.7-11.36-23.91ZM210.63,70.5c-4.87,4.28-11.43,6.45-19.5,6.45s-14.62-2.16-19.46-6.41c-4.84-4.25-7.18-9.72-7.18-16.73s2.74-12.85,8.39-17.31c4.94-3.91,11.07-5.9,18.25-5.9s13.26,1.98,18.25,5.9c5.7,4.49,8.47,10.15,8.47,17.31,0,6.96-2.35,12.41-7.21,16.69h0Z"/>
        <polygon points="318.87 32.39 346.02 32.39 346.02 84.33 355.28 84.33 355.28 32.39 382.43 32.39 382.43 23.36 318.87 23.36 318.87 32.39"/>
        <path d="M450.99,62.61c0,3.55,0,14.34-22.72,14.34s-22.87-10.8-22.87-14.34V23.36h-9.26v41.16c0,6.41,3.07,11.7,9.13,15.71,5.77,3.82,13.52,5.77,23,5.77s17.29-1.97,23.04-5.84c5.93-3.9,8.94-9.15,8.94-15.63V23.36h-9.26v39.25Z"/>
        <path d="M526.89,50.76c-2.73-1.2-6.22-1.99-10.66-2.44-2.37-.27-6.76-.53-13.4-.8-7.37-.3-12.59-1.06-15.55-2.27-3.69-1.49-4.11-3.81-4.11-5.42,0-2.7,1.42-4.68,4.49-6.24,3.43-1.74,8.56-2.63,15.26-2.63,8.5,0,16.11,1.79,22.63,5.32l1.43.77,6.35-6.91-2.02-1.35c-6.81-4.55-16.46-6.86-28.7-6.86-9.14,0-16.35,1.57-21.41,4.66-5.4,3.3-8.14,7.95-8.14,13.82,0,6.33,3.34,10.94,9.65,13.32,2.5.96,5.73,1.63,9.88,2.01,2.42.27,6.57.53,12.67.79,7.86.35,13.44,1.24,16.6,2.65,3.06,1.34,4.49,3.36,4.49,6.38,0,3.33-1.72,5.89-5.24,7.84-3.88,2.14-9.62,3.22-17.08,3.22-9.23.05-18.27-2.57-26.05-7.53l-1.69-1.07-5.3,7.67,1.7,1.18c8.37,5.82,19.28,8.77,32.42,8.77,9.78,0,17.45-1.73,22.82-5.15,5.66-3.61,8.54-8.73,8.54-15.21,0-6.78-3.32-11.81-9.57-14.53Z"/>
        <path d="M298.81,52.97c4.58-2.97,6.97-7.4,6.97-13.02,0-5.09-1.7-9.2-5.05-12.18-3.28-2.93-7.85-4.41-13.58-4.41h-46.26v9.03h0v7.26h9.3v-7.26h37.81c2.55,0,4.49.69,5.96,2.12s2.15,3.24,2.15,5.56c0,2.58-.84,4.64-2.56,6.29s-3.96,2.5-6.73,2.5h-45.95v9.02h46.79c3.33,0,5.86.81,7.73,2.48,1.81,1.6,2.68,3.76,2.68,6.59,0,3.89-1.2,8.35-10.58,8.35h-37.35v-8.52h-9.26v17.55h46.64c6.02,0,10.9-1.52,14.45-4.53,3.66-3.09,5.52-7.31,5.52-12.54,0-4.62-1.62-10.51-8.69-14.29Z"/>
        <polygon points="558.41 32.05 605.72 32.05 605.72 23.54 549.11 23.54 549.11 31.92 549.11 32.05 549.11 39.39 558.41 39.39 558.41 32.05"/>
      </g>
      <path class="cls-1" d="M737.63,104.93c.12,2.47-2.27,4.01-5.27,3.33-.16.11-84.41-21.35-84.6-21.32-2.28-.6-2.32-2.82,0-2.44l78.88,13.84V27.85l-78.88-6.69c-2.21-.16-2.74-2.32-.62-2.71,0,0,71.33-17.34,71.33-17.34l1.29-.37c3.48-1.08,7.13,1.79,5.86,4.57,0,0-3.91,9.11-3.91,9.11-.46,1.19-2.73,1.07-3.18-.09,0,0-.85-1.99-1.76-4.11l-52.63,8.4,67.98.81c2.98.01,5.49,2.07,5.49,4.52.19.11-.14,80.83,0,81ZM679.32,67.32c-.55-1.47-1.05-2.82-1.05-2.81-.63-1.82-4.23-2.37-4.88-.73,0,0-2.44,5.7-2.44,5.7-.72,1.57,1.18,3.68,3.69,4.09l1.2.21,8.72,1.5,2.71,7.06c.58,1.64,3.7,2.25,4.3.8l2.71-6.2,8.72,1.5c2.7.46,4.88-.84,4.88-2.92v-15.47c0-2.07-2.19-4.02-4.88-4.35l-22.27-2.71v-7.31l18.84,1.97,1.19,3.14c.6,1.71,3.85,2.12,4.47.5.09-.32,3.06-7.23,2.81-7.34,0-1.61-1.7-3.07-3.8-3.26l-1.25-.11-8.72-.77-2.71-6.9c-.58-1.58-3.7-1.82-4.3-.31l-2.71,6.36-8.72-.77c-2.7-.24-4.88,1.12-4.88,3.02v14.05c0,1.91,2.19,3.76,4.88,4.13l22.27,3.07v7.79l-18.78-2.92ZM637.38,28.62c3.1,1.44,6.66,1.69,10.02,1.3,5.02-.78,5-1.95,0-3.42-3.35-.86-6.91-1.1-10.02-.09-1.22.4-1.23,1.64,0,2.22ZM647.39,76.8c-3.35-1.28-6.91-1.97-10.02-1.36-1.22.25-1.23,1.48,0,2.22,3.1,1.83,6.66,2.53,10.02,2.57,5.02-.14,5-1.32,0-3.42ZM637.38,65.4c3.1,1.73,6.66,2.32,10.02,2.25,5.02-.3,5-1.48,0-3.42-3.35-1.17-6.91-1.76-10.02-1.04-1.22.29-1.23,1.52,0,2.22ZM637.38,53.14c3.1,1.63,6.66,2.11,10.02,1.93,5.02-.46,5-1.64,0-3.42-3.35-1.07-6.91-1.54-10.02-.72-1.22.33-1.23,1.56,0,2.22ZM637.38,40.88c3.1,1.54,6.66,1.9,10.02,1.62,5.02-.62,5-1.8,0-3.42-3.35-.96-6.91-1.32-10.02-.41-1.22.36-1.23,1.6,0,2.22Z"/>
    </g>
  </g>
</svg>